<svg width="20" height="18" viewBox="0 0 20 18" fill="none" xmlns="http://www.w3.org/2000/svg">
<path fill-rule="evenodd" clip-rule="evenodd" d="M5.24997 2.9612V4.38179L3.55604 4.51852C2.35836 4.6152 1.38139 5.51697 1.1893 6.70309C1.14756 6.96088 1.10959 7.21911 1.07541 7.47772C1.05845 7.60605 1.12688 7.73027 1.24388 7.78567L1.32093 7.82215C6.74964 10.3926 13.2503 10.3926 18.679 7.82215L18.756 7.78567C18.873 7.73028 18.9415 7.60606 18.9245 7.47773C18.8903 7.21912 18.8524 6.96088 18.8106 6.70309C18.6185 5.51697 17.6416 4.6152 16.4439 4.51852L14.75 4.38179V2.9612C14.75 2.09495 14.1162 1.35906 13.2596 1.23056L12.0397 1.04757C10.6874 0.844738 9.31251 0.844739 7.96029 1.04757L6.74037 1.23056C5.88371 1.35906 5.24997 2.09495 5.24997 2.9612ZM11.8171 2.53098C10.6124 2.35027 9.38751 2.35027 8.1828 2.53098L6.96288 2.71396C6.8405 2.73232 6.74997 2.83745 6.74997 2.9612V4.27621C8.91486 4.15219 11.0851 4.15219 13.25 4.27621V2.9612C13.25 2.83745 13.1594 2.73232 13.0371 2.71396L11.8171 2.53098Z" fill="white"/>
<path d="M19.1183 9.57088C19.1108 9.43076 18.9641 9.34324 18.8358 9.40004C13.2649 11.8667 6.73501 11.8667 1.16409 9.40003C1.03579 9.34323 0.889107 9.43075 0.881647 9.57087C0.779874 11.4823 0.882426 13.4019 1.1893 15.2969C1.38139 16.483 2.35836 17.3848 3.55604 17.4815L5.42796 17.6326C8.47101 17.8782 11.5289 17.8782 14.572 17.6326L16.4439 17.4815C17.6416 17.3848 18.6185 16.483 18.8106 15.2969C19.1175 13.4019 19.2201 11.4823 19.1183 9.57088Z" fill="white"/>
</svg>
