<svg width="20" height="15" viewBox="0 0 20 15" fill="none" xmlns="http://www.w3.org/2000/svg">
<path d="M0.349609 3.75195H19.6504V2.93457C19.6504 1.12402 18.7275 0.209961 16.8906 0.209961H3.10938C1.27246 0.209961 0.349609 1.12402 0.349609 2.93457V3.75195ZM0.349609 12.2773C0.349609 14.0879 1.27246 14.9932 3.10938 14.9932H16.8906C18.7275 14.9932 19.6504 14.0879 19.6504 12.2773V5.74707H0.349609V12.2773ZM3.28516 10.1328V8.5068C3.28516 8.0146 3.62793 7.6631 4.14648 7.6631H6.2998C6.81836 7.6631 7.16113 8.0146 7.16113 8.5068V10.1328C7.16113 10.6338 6.81836 10.9766 6.2998 10.9766H4.14648C3.62793 10.9766 3.28516 10.6338 3.28516 10.1328Z" fill="white"/>
</svg>
